<svg width="358" height="34" viewBox="0 0 358 34" fill="none" xmlns="http://www.w3.org/2000/svg">
<g filter="url(#filter0_d_6_33)">
<path d="M9.21875 5.95312C8.46875 6.16146 7.76562 6.375 7.10938 6.59375C6.45312 6.8125 5.875 7.02604 5.375 7.23438L4.51562 2.8125C5.63021 2.46875 6.71354 2.16667 7.76562 1.90625C8.82812 1.64583 9.84375 1.42188 10.8125 1.23438C11.7812 1.04688 12.6979 0.890625 13.5625 0.765625C14.4271 0.640625 15.2292 0.536458 15.9688 0.453125C17.6875 0.265625 19.276 0.166667 20.7344 0.15625C22.2656 0.177083 23.6042 0.328125 24.75 0.609375C25.8958 0.890625 26.849 1.28646 27.6094 1.79688C28.3802 2.30729 28.9583 2.92188 29.3438 3.64062C29.7292 4.35938 29.9219 5.16146 29.9219 6.04688C29.9219 7.20312 29.651 8.23438 29.1094 9.14062C28.5781 10.0469 27.8698 10.849 26.9844 11.5469C26.099 12.2344 25.0833 12.8281 23.9375 13.3281C22.8021 13.8281 21.6302 14.25 20.4219 14.5938C19.2135 14.9375 18.0156 15.2135 16.8281 15.4219C15.6406 15.6198 14.5625 15.7708 13.5938 15.875L13.625 20.1562L18.9062 20.1875V23.7812L5.65625 24.6094L5.5625 20.0938L10.2344 20.125L9.21875 5.95312ZM19.8438 3.9375C19.4896 3.9375 19.0781 3.96354 18.6094 4.01562C18.151 4.05729 17.651 4.11979 17.1094 4.20312C16.5677 4.27604 15.9948 4.36979 15.3906 4.48438C14.7865 4.59896 14.1667 4.72396 13.5312 4.85938L13.5938 13.3125C14.3438 13.1562 15.1354 12.9635 15.9688 12.7344C16.8125 12.4948 17.6406 12.2188 18.4531 11.9062C19.276 11.5938 20.0573 11.2448 20.7969 10.8594C21.5365 10.4635 22.1771 10.0312 22.7188 9.5625C23.2604 9.09375 23.6771 8.59375 23.9688 8.0625C24.2708 7.52083 24.3854 6.94792 24.3125 6.34375C24.2604 5.90625 24.1146 5.53646 23.875 5.23438C23.6354 4.92188 23.3177 4.67188 22.9219 4.48438C22.5365 4.28646 22.0781 4.14583 21.5469 4.0625C21.026 3.97917 20.4583 3.9375 19.8438 3.9375ZM55.375 12.6719C55.375 14.3177 55.1406 15.8646 54.6719 17.3125C54.2031 18.75 53.474 20.0104 52.4844 21.0938C51.4948 22.1667 50.224 23.0156 48.6719 23.6406C47.1198 24.2656 45.2604 24.5781 43.0938 24.5781C40.8958 24.5781 39.0156 24.2656 37.4531 23.6406C35.901 23.0156 34.6302 22.1667 33.6406 21.0938C32.6615 20.0104 31.9427 18.75 31.4844 17.3125C31.026 15.8646 30.7969 14.3177 30.7969 12.6719C30.7969 11.026 31.0469 9.47917 31.5469 8.03125C32.0469 6.57292 32.8021 5.30729 33.8125 4.23438C34.8333 3.15104 36.1146 2.29688 37.6562 1.67188C39.1979 1.04688 41.0104 0.734375 43.0938 0.734375C44.7188 0.734375 46.151 0.880208 47.3906 1.17188C48.6406 1.45312 49.7188 1.85417 50.625 2.375C51.5312 2.88542 52.2865 3.50521 52.8906 4.23438C53.5052 4.95312 53.9948 5.75521 54.3594 6.64062C54.7344 7.52604 54.9948 8.47917 55.1406 9.5C55.2969 10.5208 55.375 11.5781 55.375 12.6719ZM52.5312 12.6719C52.5312 11.7969 52.3906 10.974 52.1094 10.2031C51.8385 9.42188 51.3438 8.74479 50.625 8.17188C49.9167 7.58854 48.9531 7.13021 47.7344 6.79688C46.5156 6.46354 44.9688 6.29688 43.0938 6.29688C41.4896 6.29688 40.0938 6.46354 38.9062 6.79688C37.7292 7.13021 36.75 7.58854 35.9688 8.17188C35.1875 8.74479 34.6042 9.42188 34.2188 10.2031C33.8438 10.974 33.6562 11.7969 33.6562 12.6719C33.6562 13.5469 33.8281 14.3698 34.1719 15.1406C34.526 15.901 35.0781 16.5729 35.8281 17.1562C36.5885 17.7292 37.5625 18.1823 38.75 18.5156C39.9479 18.849 41.3958 19.0156 43.0938 19.0156C44.7604 19.0156 46.1875 18.849 47.375 18.5156C48.5625 18.1823 49.5365 17.7292 50.2969 17.1562C51.0677 16.5729 51.6302 15.901 51.9844 15.1406C52.349 14.3698 52.5312 13.5469 52.5312 12.6719ZM80.5156 16.0938C80.4219 16.6667 80.2708 17.2812 80.0625 17.9375C79.8646 18.5833 79.5885 19.2292 79.2344 19.875C78.8802 20.5208 78.4479 21.1406 77.9375 21.7344C77.4271 22.3177 76.8177 22.8333 76.1094 23.2812C75.401 23.7292 74.5885 24.0885 73.6719 24.3594C72.7552 24.6302 71.7188 24.7656 70.5625 24.7656C68.9479 24.7656 67.5 24.526 66.2188 24.0469C64.9479 23.5781 63.8698 22.9323 62.9844 22.1094C62.099 21.276 61.4219 20.3021 60.9531 19.1875C60.4844 18.0729 60.25 16.8698 60.25 15.5781C60.25 15.2865 60.2708 14.849 60.3125 14.2656C60.3542 13.6719 60.4167 12.9635 60.5 12.1406C60.5833 11.3177 60.6823 10.3958 60.7969 9.375C60.9115 8.34375 61.0417 7.24479 61.1875 6.07812L56.6094 6.20312V1.28125L70.1406 1.82812L70.0469 5.79688L65.8906 5.92188C65.5677 7.51562 65.3177 8.84896 65.1406 9.92188C64.974 10.9844 64.849 11.8438 64.7656 12.5C64.6719 13.2708 64.6198 13.8854 64.6094 14.3438C64.6094 15.375 64.7292 16.2344 64.9688 16.9219C65.2083 17.599 65.5729 18.1406 66.0625 18.5469C66.5625 18.9427 67.1823 19.224 67.9219 19.3906C68.6719 19.5573 69.5521 19.6406 70.5625 19.6406C71.2292 19.6406 71.8906 19.6146 72.5469 19.5625C73.2031 19.5104 73.8229 19.4115 74.4062 19.2656C75 19.1198 75.5365 18.9167 76.0156 18.6562C76.5052 18.3854 76.9167 18.0365 77.25 17.6094C77.5938 17.1823 77.8438 16.6667 78 16.0625C78.1667 15.4479 78.2135 14.724 78.1406 13.8906C78.1406 13.3177 78.1198 12.6406 78.0781 11.8594C78.0469 11.1927 77.9896 10.3802 77.9062 9.42188C77.8333 8.46354 77.7292 7.36979 77.5938 6.14062L72.6719 6.5625L72.4219 1.625L85.9531 1.5L86.0781 5.4375L80.6094 5.89062C80.6719 6.90104 80.7135 7.82812 80.7344 8.67188C80.7552 9.51562 80.7656 10.2812 80.7656 10.9688C80.7656 11.875 80.75 12.651 80.7188 13.2969C80.6979 13.9323 80.6719 14.4583 80.6406 14.875C80.599 15.3646 80.5573 15.7708 80.5156 16.0938ZM109.781 1.0625L106.578 8.89062C105.401 8.32812 104.276 7.90104 103.203 7.60938C102.141 7.30729 101.203 7.08854 100.391 6.95312C99.4323 6.79688 98.5417 6.71875 97.7188 6.71875C96.5 6.73958 95.4688 6.83333 94.625 7C93.7812 7.15625 93.1042 7.375 92.5938 7.65625C92.0938 7.92708 91.7448 8.23958 91.5469 8.59375C91.3594 8.94792 91.3125 9.32812 91.4062 9.73438C91.5104 10.1927 91.7552 10.5573 92.1406 10.8281C92.526 11.0885 93.0417 11.2865 93.6875 11.4219C94.3333 11.5469 95.099 11.6302 95.9844 11.6719C96.8802 11.7135 97.8854 11.7396 99 11.75C99.5833 11.7604 100.229 11.7812 100.938 11.8125C101.656 11.8438 102.38 11.9271 103.109 12.0625C103.849 12.1875 104.562 12.3802 105.25 12.6406C105.938 12.901 106.547 13.2656 107.078 13.7344C107.62 14.2031 108.052 14.7917 108.375 15.5C108.698 16.2083 108.859 17.0781 108.859 18.1094C108.859 19.0469 108.724 19.8594 108.453 20.5469C108.182 21.2344 107.818 21.8229 107.359 22.3125C106.901 22.7917 106.359 23.1875 105.734 23.5C105.12 23.8021 104.464 24.0417 103.766 24.2188C103.068 24.3958 102.349 24.5156 101.609 24.5781C100.87 24.6406 100.151 24.6719 99.4531 24.6719C98.5677 24.6719 97.7188 24.6302 96.9062 24.5469C96.1042 24.474 95.3177 24.3646 94.5469 24.2188C93.776 24.0729 93.0052 23.901 92.2344 23.7031C91.474 23.4948 90.6979 23.2656 89.9062 23.0156L88.9844 25.7656L86.7812 25.125L88.7969 17.4062C89.7344 17.8125 90.6615 18.1771 91.5781 18.5C92.5052 18.8229 93.4323 19.099 94.3594 19.3281C95.2969 19.5469 96.2396 19.7135 97.1875 19.8281C98.1354 19.9427 99.1042 20 100.094 20C101.062 20 101.891 19.9427 102.578 19.8281C103.266 19.7135 103.823 19.5417 104.25 19.3125C104.688 19.0833 105.005 18.7969 105.203 18.4531C105.401 18.1094 105.5 17.7083 105.5 17.25C105.5 16.6771 105.354 16.224 105.062 15.8906C104.771 15.5573 104.328 15.3021 103.734 15.125C103.151 14.9479 102.417 14.8281 101.531 14.7656C100.656 14.7031 99.6302 14.6562 98.4531 14.625C97.6302 14.6042 96.7656 14.5729 95.8594 14.5312C94.9531 14.4896 94.0625 14.401 93.1875 14.2656C92.3125 14.1302 91.4792 13.9323 90.6875 13.6719C89.8958 13.4115 89.1979 13.0521 88.5938 12.5938C88 12.1354 87.526 11.5625 87.1719 10.875C86.8177 10.1875 86.6406 9.34896 86.6406 8.35938C86.6406 7.47396 86.7812 6.67708 87.0625 5.96875C87.3542 5.25 87.7604 4.61979 88.2812 4.07812C88.8021 3.52604 89.4167 3.05729 90.125 2.67188C90.8438 2.27604 91.6302 1.95833 92.4844 1.71875C93.349 1.46875 94.2604 1.29167 95.2188 1.1875C96.1875 1.08333 97.1823 1.04167 98.2031 1.0625C99.2448 1.11458 100.276 1.21875 101.297 1.375C101.724 1.4375 102.172 1.52083 102.641 1.625C103.109 1.71875 103.573 1.83854 104.031 1.98438C104.49 2.11979 104.932 2.28125 105.359 2.46875C105.786 2.64583 106.182 2.84896 106.547 3.07812L107.219 0.03125L109.781 1.0625ZM139.625 24.4219L126.188 24L126.094 20.0312L131.5 19.8125L130.156 17.3125H119.828L118.672 19.8125L123.781 19.8438L123.562 24.7656L110.156 23.6406L110.25 19.7188L114.312 19.75L121.844 6.9375L114.641 7.23438V2.17188H127.953L134.766 19.6875L139.625 19.4844V24.4219ZM120.812 15.1719H129L124.594 6.96875L120.812 15.1719ZM165.047 12.5781C165.047 14.1198 164.844 15.4896 164.438 16.6875C164.042 17.875 163.495 18.9115 162.797 19.7969C162.099 20.6823 161.271 21.4271 160.312 22.0312C159.365 22.6354 158.333 23.125 157.219 23.5C156.115 23.875 154.953 24.1406 153.734 24.2969C152.526 24.4635 151.307 24.5469 150.078 24.5469C148.818 24.5469 147.318 24.5052 145.578 24.4219C143.849 24.349 141.911 24.2083 139.766 24L140.953 18.2656C141.703 18.4635 142.49 18.6354 143.312 18.7812C144.135 18.9167 144.948 19.026 145.75 19.1094L144.766 7.01562C144.12 7.14062 143.464 7.27604 142.797 7.42188C142.13 7.56771 141.443 7.72917 140.734 7.90625L139.766 2.90625C140.943 2.55208 142.104 2.26562 143.25 2.04688C144.396 1.82812 145.479 1.66667 146.5 1.5625C147.521 1.44792 148.453 1.375 149.297 1.34375C150.151 1.30208 150.87 1.28125 151.453 1.28125C153.422 1.28125 155.234 1.48958 156.891 1.90625C158.557 2.3125 159.995 2.96875 161.203 3.875C162.411 4.77083 163.354 5.9375 164.031 7.375C164.708 8.80208 165.047 10.5365 165.047 12.5781ZM152.406 19.4844C154.083 19.4844 155.552 19.2812 156.812 18.875C158.083 18.4688 159.141 17.9479 159.984 17.3125C160.839 16.6667 161.479 15.9531 161.906 15.1719C162.333 14.3802 162.547 13.599 162.547 12.8281C162.547 12.0677 162.417 11.3021 162.156 10.5312C161.906 9.75 161.479 9.04167 160.875 8.40625C160.271 7.77083 159.469 7.23958 158.469 6.8125C157.479 6.38542 156.25 6.14062 154.781 6.07812C154.354 6.05729 153.859 6.05729 153.297 6.07812C152.818 6.09896 152.24 6.13021 151.562 6.17188C150.885 6.21354 150.125 6.28125 149.281 6.375L148.703 19.3594C149.234 19.401 149.724 19.4323 150.172 19.4531C150.63 19.4635 151.026 19.474 151.359 19.4844C151.745 19.4948 152.094 19.4948 152.406 19.4844ZM195.094 24.4219L181.656 24L181.562 20.0312L186.969 19.8125L185.625 17.3125H175.297L174.141 19.8125L179.25 19.8438L179.031 24.7656L165.625 23.6406L165.719 19.7188L169.781 19.75L177.312 6.9375L170.109 7.23438V2.17188H183.422L190.234 19.6875L195.094 19.4844V24.4219ZM176.281 15.1719H184.469L180.062 6.96875L176.281 15.1719ZM232.75 23.1094L219.344 24.2188L219.078 19.2969L222.828 19.2656L218.953 14.7812L214.578 19.3594L218.094 19.4844L218 23.4531L204.562 23.875V18.9375L209.453 19.1406L215.656 13.0938L208.625 5.98438L204.562 6.10938V1.1875L218.094 1.73438L218 5.70312L214.516 5.82812L218.062 10.7812L222.766 6.17188L219.344 6.46875L219.078 1.53125L232.625 1.40625L232.75 5.34375L227.594 5.79688L221.266 12.3906L229.297 19.2031L232.625 19.1719L232.75 23.1094ZM250.422 14.8125L243.188 14.2344L242.906 18.0156H255.25L255.859 14.9688H258.297L257.75 23.1094L235.062 23.9688V18.0156H239.703L239.031 7.48438L235.062 7.75V1.85938L258.297 2.34375V11.3594L255.859 11.8438L255.375 6.4375L243.734 7.20312L243.375 11.75L250.422 11.3281V14.8125ZM287.453 15.9062L286.281 23.5781H279.484L273.922 14.625C273.12 14.6875 272.255 14.7188 271.328 14.7188C270.974 14.7188 270.615 14.7188 270.25 14.7188C269.885 14.7188 269.51 14.7083 269.125 14.6875L268.859 20.0938L273.828 20.3906L274.109 23.5781L261.375 24.6094V19.6406L265.828 19.9062L264.969 6.625L261.672 7.29688L261.031 2.5625C261.792 2.33333 262.557 2.13542 263.328 1.96875C264.109 1.79167 264.875 1.64062 265.625 1.51562C266.375 1.39062 267.099 1.28646 267.797 1.20312C268.495 1.10938 269.151 1.03125 269.766 0.96875C271.203 0.833333 272.589 0.755208 273.922 0.734375C275.609 0.734375 277.182 0.875 278.641 1.15625C280.109 1.4375 281.375 1.85417 282.438 2.40625C283.51 2.95833 284.339 3.64583 284.922 4.46875C285.516 5.28125 285.776 6.22396 285.703 7.29688C285.651 8.04688 285.427 8.78125 285.031 9.5C284.646 10.2188 284.078 10.8854 283.328 11.5C282.589 12.1146 281.672 12.6615 280.578 13.1406C279.484 13.6198 278.203 13.9948 276.734 14.2656L282.438 19.75L284.969 19.1094L285 15.9062H287.453ZM270.562 12.6406C271.094 12.6406 271.714 12.6302 272.422 12.6094C273.13 12.5781 273.854 12.5104 274.594 12.4062C275.333 12.2917 276.052 12.1302 276.75 11.9219C277.448 11.7135 278.052 11.4271 278.562 11.0625C279.083 10.6979 279.474 10.25 279.734 9.71875C280.005 9.17708 280.073 8.52083 279.938 7.75C279.885 7.45833 279.745 7.16146 279.516 6.85938C279.286 6.54688 278.953 6.26562 278.516 6.01562C278.078 5.76562 277.531 5.5625 276.875 5.40625C276.229 5.23958 275.458 5.15625 274.562 5.15625C274.125 5.15625 273.698 5.16667 273.281 5.1875C272.875 5.20833 272.469 5.23958 272.062 5.28125C271.667 5.3125 271.266 5.35938 270.859 5.42188C270.453 5.48438 270.026 5.55208 269.578 5.625L269.219 12.6094C269.448 12.6302 269.672 12.6406 269.891 12.6406C270.109 12.6406 270.333 12.6406 270.562 12.6406ZM302.719 19.3906L302.5 24.3125L289.094 23.2344L289.188 19.2656L294.203 19.3281L293.703 5.95312L289.094 6.07812V1.15625L302.625 1.70312L302.531 5.65625L298.5 5.79688L297.219 19.3594L302.719 19.3906ZM320.484 15.7812L313.188 15.2031L312.844 19.75L318.594 19.4844V24.4219L305.156 24L305.062 20.0312L309.859 19.8438L309.094 7.48438L305.125 7.75V1.85938L328.359 2.34375V11.3594L325.281 11.5156L325.438 6.4375L313.797 7.20312L313.375 12.7344L320.484 12.2812V15.7812ZM345.609 14.8125L338.375 14.2344L338.094 18.0156H350.438L351.047 14.9688H353.484L352.938 23.1094L330.25 23.9688V18.0156H334.891L334.219 7.48438L330.25 7.75V1.85938L353.484 2.34375V11.3594L351.047 11.8438L350.562 6.4375L338.922 7.20312L338.562 11.75L345.609 11.3281V14.8125Z" fill="#FF1B1B"/>
</g>
<defs>
<filter id="filter0_d_6_33" x="0.515625" y="0.03125" width="356.969" height="33.7344" filterUnits="userSpaceOnUse" color-interpolation-filters="sRGB">
<feFlood flood-opacity="0" result="BackgroundImageFix"/>
<feColorMatrix in="SourceAlpha" type="matrix" values="0 0 0 0 0 0 0 0 0 0 0 0 0 0 0 0 0 0 127 0" result="hardAlpha"/>
<feOffset dy="4"/>
<feGaussianBlur stdDeviation="2"/>
<feComposite in2="hardAlpha" operator="out"/>
<feColorMatrix type="matrix" values="0 0 0 0 0 0 0 0 0 0 0 0 0 0 0 0 0 0 0.25 0"/>
<feBlend mode="normal" in2="BackgroundImageFix" result="effect1_dropShadow_6_33"/>
<feBlend mode="normal" in="SourceGraphic" in2="effect1_dropShadow_6_33" result="shape"/>
</filter>
</defs>
</svg>
